<?xml version="1.0" encoding="utf-8"?>
<!-- Generator: Adobe Illustrator 21.1.0, SVG Export Plug-In . SVG Version: 6.00 Build 0)  -->
<svg version="1.1" id="Layer_1" xmlns="http://www.w3.org/2000/svg" xmlns:xlink="http://www.w3.org/1999/xlink" x="0px" y="0px"
	 viewBox="0 0 28.3 28.3" style="enable-background:new 0 0 28.3 28.3;" xml:space="preserve">
<style type="text/css">
	.st0{fill:#FFFFFF;}
</style>
<g>
	<path class="st0" d="M14.2,26.8c-6.9,0-12.6-5.7-12.6-12.6S7.2,1.6,14.2,1.6c6.9,0,12.6,5.7,12.6,12.6S21.1,26.8,14.2,26.8z
		 M14.2,2.6C7.8,2.6,2.6,7.8,2.6,14.2c0,6.4,5.2,11.6,11.6,11.6c6.4,0,11.6-5.2,11.6-11.6C25.8,7.8,20.6,2.6,14.2,2.6z"/>
</g>
<g>
	<g>
		<rect x="10.8" y="13.7" class="st0" width="6.7" height="1"/>
	</g>
	<g>
		<polygon class="st0" points="15,17.4 14.3,16.7 16.8,14.2 14.3,11.6 15,10.9 18.2,14.2 		"/>
	</g>
</g>
</svg>
