<svg xmlns="http://www.w3.org/2000/svg" width="58" height="57" viewBox="0 0 58 57"><defs><clipPath id="84sea"><path fill="#fff" d="M29.437.094c15.74 0 28.5 12.739 28.5 28.453 0 15.714-12.76 28.453-28.5 28.453S.937 44.261.937 28.547c0-15.714 12.76-28.453 28.5-28.453z"/></clipPath></defs><g><g><path fill="#382e1b" d="M29.437.094c15.74 0 28.5 12.739 28.5 28.453 0 15.714-12.76 28.453-28.5 28.453S.937 44.261.937 28.547c0-15.714 12.76-28.453 28.5-28.453z"/><path fill="none" stroke="#222637" stroke-linecap="round" stroke-linejoin="round" stroke-miterlimit="20" stroke-width="6" d="M29.437.094c15.74 0 28.5 12.739 28.5 28.453 0 15.714-12.76 28.453-28.5 28.453S.937 44.261.937 28.547c0-15.714 12.76-28.453 28.5-28.453z" clip-path="url(&quot;#84sea&quot;)"/></g><g><path fill="#382e1b" d="M29.437 16.062c6.904 0 12.5 5.59 12.5 12.485s-5.596 12.484-12.5 12.484c-6.903 0-12.5-5.59-12.5-12.484 0-6.895 5.597-12.485 12.5-12.485z"/><path fill="#222637" d="M29.437 16.062c6.904 0 12.5 5.59 12.5 12.485s-5.596 12.484-12.5 12.484c-6.903 0-12.5-5.59-12.5-12.484 0-6.895 5.597-12.485 12.5-12.485z"/></g></g></svg>