<?xml version="1.0" encoding="utf-8"?>
<!-- Generator: Adobe Illustrator 21.1.0, SVG Export Plug-In . SVG Version: 6.00 Build 0)  -->
<svg version="1.1" id="Layer_1" xmlns="http://www.w3.org/2000/svg" xmlns:xlink="http://www.w3.org/1999/xlink" x="0px" y="0px"
	 viewBox="0 0 28.3 28.3" style="enable-background:new 0 0 28.3 28.3;" xml:space="preserve">
<style type="text/css">
	.st0{fill:#3D416F;}
</style>
<path class="st0" d="M14.2,0C6.3,0,0,6.3,0,14.2C0,22,6.3,28.3,14.2,28.3S28.3,22,28.3,14.2C28.3,6.3,22,0,14.2,0z M17.5,9.3h-1.1
	c-1.1,0-1.4,0.7-1.4,1.4v1.6h2.4L17,14.8h-2v6.1c0,0,0,0,0,0v0.8h-2.7v-0.8v-1.5v-4.6h-2.2v-2.5h2.2v-1.9c0-2.2,1.3-3.4,3.3-3.4
	c1,0,2,0.2,2,0.2V9.3z"/>
</svg>
