<?xml version="1.0" encoding="utf-8"?>
<!-- Generator: Adobe Illustrator 21.1.0, SVG Export Plug-In . SVG Version: 6.00 Build 0)  -->
<svg version="1.1" id="Layer_1" xmlns="http://www.w3.org/2000/svg" xmlns:xlink="http://www.w3.org/1999/xlink" x="0px" y="0px"
	 viewBox="0 0 28.3 28.3" style="enable-background:new 0 0 28.3 28.3;" xml:space="preserve">
<style type="text/css">
	.st0{fill:#3D416F;}
</style>
<g>
	<path class="st0" d="M20.1,9.9c-0.1-0.3-0.3-0.6-0.6-0.8c-0.3-0.3-0.5-0.4-0.8-0.6c-0.3-0.1-0.7-0.2-1.4-0.3c-0.8,0-1,0-3,0
		c-2,0-2.2,0-3,0c-0.7,0-1.1,0.2-1.4,0.3C9.6,8.6,9.4,8.8,9.1,9C8.9,9.3,8.7,9.5,8.6,9.9c-0.1,0.3-0.2,0.7-0.3,1.4c0,0.8,0,1,0,3
		c0,2,0,2.2,0,3c0,0.7,0.2,1.1,0.3,1.4c0.1,0.3,0.3,0.6,0.6,0.8c0.3,0.3,0.5,0.4,0.8,0.6c0.3,0.1,0.7,0.2,1.4,0.3c0.8,0,1,0,3,0
		c2,0,2.2,0,3,0c0.7,0,1.1-0.2,1.4-0.3c0.3-0.1,0.6-0.3,0.8-0.6c0.3-0.3,0.4-0.5,0.6-0.8c0.1-0.3,0.2-0.7,0.3-1.4c0-0.8,0-1,0-3
		c0-2,0-2.2,0-3C20.3,10.5,20.2,10.1,20.1,9.9z M14.3,18c-2.1,0-3.8-1.7-3.8-3.8c0-2.1,1.7-3.8,3.8-3.8c2.1,0,3.8,1.7,3.8,3.8
		C18.1,16.3,16.4,18,14.3,18z M18.3,11.2c-0.5,0-0.9-0.4-0.9-0.9c0-0.5,0.4-0.9,0.9-0.9c0.5,0,0.9,0.4,0.9,0.9
		C19.2,10.8,18.8,11.2,18.3,11.2z"/>
	<circle class="st0" cx="14.3" cy="14.2" r="2.5"/>
	<path class="st0" d="M14.3,0.3c-7.7,0-14,6.3-14,14c0,7.7,6.3,14,14,14c7.7,0,14-6.3,14-14C28.3,6.6,22.1,0.3,14.3,0.3z M21.7,17.3
		c0,0.8-0.2,1.3-0.3,1.8c-0.2,0.5-0.4,0.9-0.9,1.3c-0.4,0.4-0.8,0.7-1.3,0.9c-0.5,0.2-1,0.3-1.8,0.3c-0.8,0-1,0-3,0c-2,0-2.3,0-3,0
		c-0.8,0-1.3-0.2-1.8-0.3C9,21,8.6,20.8,8.2,20.4c-0.4-0.4-0.7-0.8-0.9-1.3C7.2,18.6,7,18,7,17.3c0-0.8,0-1,0-3c0-2,0-2.3,0-3
		c0-0.8,0.2-1.3,0.3-1.8c0.2-0.5,0.4-0.9,0.9-1.3S9,7.4,9.5,7.2c0.5-0.2,1-0.3,1.8-0.3c0.8,0,1,0,3,0c2,0,2.3,0,3,0
		c0.8,0,1.3,0.2,1.8,0.3c0.5,0.2,0.9,0.4,1.3,0.9c0.4,0.4,0.7,0.8,0.9,1.3c0.2,0.5,0.3,1,0.3,1.8c0,0.8,0,1,0,3
		C21.7,16.2,21.7,16.5,21.7,17.3z"/>
</g>
</svg>
